<?xml version="1.0" encoding="UTF-8"?>
<svg width="238px" height="76px" viewBox="0 0 238 76" version="1.1" xmlns="http://www.w3.org/2000/svg" xmlns:xlink="http://www.w3.org/1999/xlink">
    <title>LOGO</title>
    <g id="页面-1" stroke="none" stroke-width="1" fill="none" fill-rule="evenodd">
        <g id="02-浏览器-寰宇浏览器下载" transform="translate(-360.000000, -12.000000)" fill="#35A2F8" fill-rule="nonzero">
            <g id="胜天娱乐场" transform="translate(360.000000, 12.000000)">
                <path d="M41.5590304,64.3603183 L41.0178931,65.5033562 C40.8218455,65.9175212 40.7344266,66.374679 40.7639484,66.8315503 L40.8717172,68.5128593 L36.4612675,67.5972207 C37.2527616,68.454382 38.7376994,70.6338007 39.0508819,75.136059 C39.0574741,75.23093 38.98152,75.313763 38.8863624,75.313763 L37.6089,75.313763 C37.5125959,75.313763 37.4366418,75.2326497 37.445527,75.1369189 C37.5236611,74.2840937 37.7041105,70.5120675 35.2060893,67.3584453 C34.9276214,67.3241102 34.6477225,67.3140818 34.3686265,67.3271226 C31.8448932,70.4887639 32.0262268,74.2817081 32.1046049,75.1369189 C32.111713,75.2135036 32.064524,75.280733 31.9962031,75.3045614 L31.9415185,75.313763 L30.6637694,75.313763 C30.5686118,75.313763 30.4926577,75.23093 30.4992499,75.136059 C30.8237021,70.4717902 32.4057563,68.3005401 33.1715277,67.5097775 L28.2756571,68.5128593 L28.5774673,67.340013 C28.7267959,66.7596088 28.6488355,66.1442371 28.3596366,65.6197237 L27.6648713,64.3603183 L34.1550796,65.0304343 C34.4588961,65.0616758 34.7650056,65.0616758 35.0685355,65.0304343 L41.5590304,64.3603183 Z M44.4395261,65.306936 C50.1710531,62.5470784 54.5583353,66.8635656 54.5583353,66.8635656 C47.482277,69.9771115 44.4395261,65.306936 44.4395261,65.306936 Z M24.9078799,65.306936 C24.9078799,65.306936 21.8651289,69.9771115 14.7890707,66.8635656 C14.7890707,66.8635656 19.1763529,62.5470784 24.9078799,65.306936 Z M21.5820637,55.9270315 C26.3152318,58.0430465 26.2969023,61.3002949 26.0550192,62.6434662 L26.0245914,62.798162 C25.9627329,63.0875898 25.8985509,63.2547415 25.8985509,63.2547415 C20.5915072,62.1225951 21.5820637,55.9270315 21.5820637,55.9270315 Z M47.7653136,55.9270315 C47.7653136,55.9270315 48.7558701,62.1225951 43.4488264,63.2547415 C43.4488264,63.2547415 41.6798118,58.6476223 47.7653136,55.9270315 Z M62.5765686,59.5751511 C57.9441866,64.296318 53.3795029,62.0747511 52.9617424,61.8561055 L52.9306814,61.8394439 C54.9828759,57.7353416 62.5765686,59.5751511 62.5765686,59.5751511 Z M16.4166959,61.8394439 C16.4166959,61.8394439 16.4061805,61.8453525 16.3856349,61.8561055 L16.3313139,61.8837557 C15.6684781,62.2129643 11.2513094,64.1415256 6.77080867,59.5751511 C6.77080867,59.5751511 14.3645015,57.7353416 16.4166959,61.8394439 Z M52.9308247,52.4990642 C52.9308247,52.4990642 55.4075024,58.2652721 50.8786302,60.866056 C50.8786302,60.866056 48.6851324,56.1786833 52.9308247,52.4990642 Z M16.4165813,52.4990642 C20.5158704,56.0517999 18.6123949,60.5439872 18.4762464,60.8495688 L18.4687758,60.866056 C13.9399036,58.2652721 16.4165813,52.4990642 16.4165813,52.4990642 Z M37.8086248,51.1631531 L37.8086248,55.186098 L33.383128,59.6117277 L33.383128,55.577181 L37.8086248,51.1631531 Z M39.9654947,31.2767378 C41.9520301,31.2767378 43.8898651,31.8361397 45.1403396,33.3015822 C45.3789918,33.5154407 45.7162095,33.9073224 46.0489868,34.4710772 C46.5507069,35.3210363 46.8698357,36.2999124 46.922447,37.398176 L46.930122,37.7413342 C46.9284794,38.2513108 46.8686185,38.7760219 46.7463967,39.3142918 C46.5268912,40.2799317 46.0597102,41.176012 45.3948772,41.9192443 L45.1895478,42.1375453 L28.978145,58.5303421 L28.978145,50.6412655 L40.7875019,38.5608729 C40.9992455,38.3443364 41.1184958,38.0667004 41.1177986,37.791286 C41.1166478,37.3111888 40.8049383,37.0472163 39.7479373,37.1001162 L39.5535826,37.1127613 L39.0142145,37.1553615 L39.014,32.29 L38.8727061,32.2922355 L38.8585714,31.2923354 L39.9654947,31.2767378 Z M40.014,32.277 L40.014,36.099 L40.0923334,36.1012661 C41.3737145,36.1504148 42.0493587,36.7334472 42.1128619,37.6490173 L42.1177956,37.7888216 C42.1190221,38.2732899 41.9403095,38.7435118 41.6264681,39.1223413 L41.5025309,39.2599676 L29.978,51.048 L29.978,56.096 L44.4784955,41.4344061 C45.0580103,40.8483321 45.4797107,40.1323022 45.70389,39.3542878 L45.7712464,39.0927473 C45.856016,38.7194185 45.9059383,38.3557684 45.9232348,38.0026113 L45.930127,37.702201 C45.9269374,36.6704751 45.6491752,35.760977 45.1878259,34.9794096 C45.0259202,34.7051267 44.8529892,34.4673642 44.6813324,34.2678814 L44.5892281,34.1643343 L44.4270385,33.9993543 C43.4212898,32.8260416 41.8631926,32.3297875 40.2430723,32.2807579 L40.014,32.277 Z M56.4689971,47.8287454 C59.9362313,52.2160276 56.8226854,55.9271748 56.8226854,55.9271748 C53.4970412,52.2082889 56.4689971,47.8287454 56.4689971,47.8287454 Z M12.8784088,47.8287454 C12.8784088,47.8287454 15.8503648,52.2082889 12.5247206,55.9271748 C12.5247206,55.9271748 9.41117469,52.2160276 12.8784088,47.8287454 Z M1.69827691,50.6592546 L1.72371349,50.6600124 C2.17655283,50.6755956 8.53945063,50.9802683 9.83568659,55.8247084 C9.83568659,55.8247084 4.31654458,57.0984447 1.69827691,50.6592546 Z M67.6491291,50.6592546 C65.1114235,56.9003158 59.8486125,55.89579 59.5271498,55.8280643 L59.5117194,55.8247084 L59.5117194,55.8247084 C60.8079553,50.9802683 67.1708531,50.6755956 67.6236925,50.6600124 L67.6491291,50.6592546 Z M11.240236,42.0971611 C11.240236,42.0971611 12.2379579,47.970278 8.34624053,49.8808825 C8.34624053,49.8808825 6.34678401,44.7154288 11.240236,42.0971611 Z M58.1071413,42.0971611 C63.0005933,44.7154288 61.0011368,49.8808825 61.0011368,49.8808825 C57.1094194,47.970278 58.1071413,42.0971611 58.1071413,42.0971611 Z M0,42.6632629 C0,42.6632629 5.97028085,43.7246144 6.77080867,49.314838 C6.77080867,49.314838 6.73082111,49.3122958 6.6568914,49.3038094 L6.55227043,49.2905547 C5.51106232,49.147179 1.06021951,48.2136902 0,42.6632629 Z M69.3473773,42.6632629 C68.266769,48.3204292 63.6638748,49.181375 62.7388684,49.297977 L62.6502495,49.3082151 C62.6021607,49.313211 62.5765686,49.314838 62.5765686,49.314838 C63.3770965,43.7246144 69.3473773,42.6632629 69.3473773,42.6632629 Z M28.206163,30.2402894 L28.263345,38.9830266 L28.26813,39.0770796 C28.3101187,39.4585904 28.6756903,39.7235998 29.0338142,39.6345142 L29.0338142,39.6345142 L29.1544889,39.5979008 C29.3193316,39.5373456 29.4715823,39.4361684 29.5985718,39.302758 L29.5985718,39.302758 L32.5263637,36.2259772 L32.5263637,44.1947923 L32.1497046,44.4652769 C31.6847659,44.7779908 31.1335658,44.9941594 30.5154593,45.1290938 C29.6725644,45.3131001 28.7900367,45.3345705 27.9794412,45.2622683 C27.8220843,45.2482327 27.7058132,45.2338983 27.5737987,45.2093017 L27.5737987,45.2093017 L27.3047207,45.1305216 C26.37825,44.8375614 25.5435574,44.3543582 24.8016205,43.7352259 C24.35994,43.3666519 23.977785,42.9722511 23.655258,42.5770064 C23.6225918,42.5369752 23.5916305,42.4983249 23.5624297,42.46125 L23.5624297,42.46125 L23.4087988,42.2592608 C23.3868637,42.2292653 23.3668008,42.2012342 23.348666,42.1753619 L23.348666,42.1753619 L23.1040605,41.8142299 C22.5688054,40.9766163 22.3243729,40.017903 22.3222924,38.9795485 L22.3222924,38.9795485 L22.3310669,38.6232909 C22.3467574,38.312824 22.3830965,38.0001817 22.440199,37.674748 L22.440199,37.674748 L22.4993736,37.3800597 C22.7726504,36.1690109 23.3915703,35.0547489 24.2794413,34.1670111 L24.2794413,34.1670111 L28.206163,30.2402894 Z M27.222,32.638 L24.9865216,34.8741444 C24.2315434,35.6290093 23.7062436,36.574724 23.4773726,37.5883161 L23.4773726,37.5883161 L23.4229767,37.8591353 C23.374976,38.1334249 23.3433483,38.4055325 23.330252,38.6618522 L23.330252,38.6618522 L23.3222924,38.9537687 L23.3301384,39.2613252 C23.3705488,40.0068079 23.5675429,40.6824648 23.9380269,41.262639 L23.9380269,41.262639 L24.100111,41.5002796 C24.110372,41.516701 24.1230048,41.5360974 24.1379943,41.5582693 L24.1379943,41.5582693 L24.2560933,41.7230081 C24.3048069,41.7879578 24.3628278,41.8624119 24.4300361,41.9447731 C24.7142053,42.2930118 25.0524491,42.6420943 25.4423248,42.9674382 C26.0897283,43.5076841 26.8124081,43.9260432 27.595756,44.1738717 L27.595756,44.1738717 L27.7894187,44.2350932 L28.0682848,44.2662227 C28.7863922,44.3302753 29.573753,44.3111202 30.3021794,44.1521026 C30.8051384,44.0423053 31.2408111,43.871444 31.5787937,43.6444132 L31.526,43.676 L31.526,38.727 L30.3229474,39.9921635 C30.137746,40.186729 29.9205086,40.3453911 29.6702145,40.4634968 L29.6702145,40.4634968 L29.4762799,40.544399 L29.3045079,40.5974683 L29.1414257,40.6320792 C28.2333232,40.7767533 27.3762059,40.1136352 27.2719696,39.1607248 L27.2719696,39.1607248 L27.2641945,39.0152805 L27.222,32.638 Z M43.2294365,15.610645 L43.2294365,22.4598465 L37.8611147,27.8326864 L37.8611147,40.0480394 L33.5992004,44.2827032 L33.5992004,32.1569242 L29.212772,36.5433526 L29.212772,29.6370102 L43.2294365,15.610645 Z M58.807467,36.5069661 C58.807467,36.5069661 63.9732074,37.7807025 63.1947492,42.6632629 C64.0084615,42.7592804 58.3445768,42.7655861 58.807467,36.5069661 Z M10.5399103,36.5069661 C11.0028005,42.7655861 5.33891577,42.7592804 6.15262807,42.6632629 C5.37416995,37.7807025 10.5399103,36.5069661 10.5399103,36.5069661 Z M0.990642424,33.8181328 C0.990642424,33.8181328 5.73161293,36.3656055 4.9531548,41.8142391 C4.9531548,41.8142391 4.94103908,41.8108314 4.91813933,41.8034382 L4.8583557,41.7831666 C4.2102258,41.5541372 0.473368642,39.9609881 0.990642424,33.8181328 Z M68.3567349,33.8181328 C68.9228081,40.5405028 64.3942225,41.8142391 64.3942225,41.8142391 C63.6157644,36.3656055 68.3567349,33.8181328 68.3567349,33.8181328 Z M63.2748593,36.2240155 C63.2748593,36.2240155 63.2512309,36.2255133 63.2071416,36.2262224 L63.1260578,36.2264086 C62.3450177,36.2184294 58.7312237,35.9205221 58.1073993,31.1293568 C58.1073993,31.1293568 63.6417321,31.2706601 63.2748593,36.2240155 Z M11.239978,31.1293568 C10.6161537,35.9205221 7.00235962,36.2184294 6.22131949,36.2264086 L6.14023573,36.2262224 C6.09614639,36.2255133 6.07251797,36.2240155 6.07251797,36.2240155 C5.70564521,31.2706601 11.239978,31.1293568 11.239978,31.1293568 Z M66.5876917,26.3882143 C66.5876917,26.3882143 67.932223,32.6153061 64.4649888,34.525624 C64.4649888,34.525624 62.4127944,30.0678334 66.5876917,26.3882143 Z M2.75968565,26.3882143 C6.93458296,30.0678334 4.88238848,34.525624 4.88238848,34.525624 C1.41515433,32.6153061 2.75968565,26.3882143 2.75968565,26.3882143 Z M61.4055567,29.7847395 C57.0348984,30.4568618 56.6771974,26.7419885 56.6771974,26.7419885 C62.2711471,26.3883003 61.4055567,29.7847395 61.4055567,29.7847395 Z M12.6701799,26.7419885 C12.6701799,26.7419885 12.312479,30.4568618 7.94182064,29.7847395 C7.94182064,29.7847395 7.07623023,26.3883003 12.6701799,26.7419885 Z M7.02246045,20.402198 C7.02246045,20.402198 9.29133914,24.1485994 6.70574608,27.5782865 C6.70574608,27.5782865 4.01496371,23.6209332 7.02246045,20.402198 Z M62.3249455,20.402198 C65.1622066,23.4387407 62.9280196,27.1326507 62.6660022,27.5411002 L62.6444773,27.5740916 C60.0560668,24.1485994 62.3249455,20.402198 62.3249455,20.402198 Z M59.0680107,24.7523 L59.0677787,24.8508925 C59.0669118,24.8840617 59.0655104,24.9022363 59.0655104,24.9022363 C56.1366943,26.2483857 54.396667,23.7043388 54.0948759,23.2131696 L54.0476656,23.1332218 C58.7189926,21.3287059 59.054958,24.0654275 59.0680107,24.7523 Z M15.2997404,23.1332218 C15.2997404,23.1332218 13.5152484,26.3883576 10.2818956,24.9022363 L10.2810865,24.8890029 C10.2682425,24.6456885 10.1704402,21.1517926 15.2997404,23.1332218 Z M58.3143958,15.2923485 C61.6664089,18.7627354 59.4580069,22.1543021 59.4580069,22.1543021 C56.8947702,19.3938712 58.3143958,15.2923485 58.3143958,15.2923485 Z M11.0329816,15.2923485 C11.0329816,15.2923485 12.4526072,19.3938712 9.88937039,22.1543021 C9.88937039,22.1543021 7.68096838,18.7627354 11.0329816,15.2923485 Z M17.9532265,20.3905706 L17.9734402,20.402198 C15.2995684,22.5274804 13.0341291,20.9396093 13.0341291,20.9396093 C14.2659194,18.3674624 17.6603842,20.2242486 17.9532265,20.3905706 Z M56.3132768,20.9396093 C56.3132768,20.9396093 54.0478376,22.5274804 51.3739658,20.402198 L51.3941795,20.3905706 C51.6870218,20.2242486 55.0814866,18.3674624 56.3132768,20.9396093 Z M52.5770218,17.8261207 C52.5770218,17.8261207 51.4448754,19.3827504 48.1189446,17.8261207 C48.1189446,17.8261207 50.7372122,15.6326229 52.5770218,17.8261207 Z M21.2284614,17.8261207 C17.9025306,19.3827504 16.7703842,17.8261207 16.7703842,17.8261207 C18.6101937,15.6326229 21.2284614,17.8261207 21.2284614,17.8261207 Z M15.3651469,12.1233417 C16.3220842,16.0613937 13.8837248,17.8733723 13.5467727,18.1021533 L13.5131017,18.1243946 C13.5102028,18.1262388 13.5087134,18.127157 13.5087134,18.127157 C11.7706538,14.6117708 15.3651469,12.1233417 15.3651469,12.1233417 Z M53.9822304,12.1233417 C53.9822304,12.1233417 57.5767236,14.6117708 55.8386639,18.127157 C55.8386639,18.127157 55.8252597,18.1188933 55.8006047,18.1021533 L55.7369315,18.0573083 C55.233843,17.6915349 53.071973,15.8692936 53.9822304,12.1233417 Z M34.74479,2.80472279 C35.9601751,10.0970333 42.1844199,8.97445942 43.3356916,8.70138817 L43.4238527,8.67973395 C43.4610942,8.67024485 43.4878847,8.66293954 43.5033584,8.65861355 L43.5189604,8.6541697 L40.411299,15.7830404 C35.5641017,14.227105 29.0712035,15.7274713 28.8408599,15.781552 L28.8345541,15.7830404 L25.970905,8.6541697 C33.8091143,10.3500034 34.74479,2.80472279 34.74479,2.80472279 Z M20.070376,10.4021066 C20.3377918,14.5632462 17.2629395,15.5492167 17.2629395,15.5492167 C16.7948901,11.9059983 20.070376,10.4021066 20.070376,10.4021066 Z M49.2770013,10.4021066 C49.2770013,10.4021066 52.5524872,11.9059983 52.0844378,15.5492167 C52.0844378,15.5492167 49.0095855,14.5632462 49.2770013,10.4021066 Z M25.0852972,13.5500181 C22.9479768,15.862463 20.7106262,14.7999651 20.7106262,14.7999651 C21.9605732,12.3000712 25.0852972,13.5500181 25.0852972,13.5500181 Z M48.6367511,14.7999651 C48.6367511,14.7999651 46.3994005,15.862463 44.2620801,13.5500181 C44.2620801,13.5500181 47.3868041,12.3000712 48.6367511,14.7999651 Z M40.2406331,5.54071095 L41.0478508,6.34792867 L40.2406331,7.15514639 L39.4334154,6.34792867 L40.2406331,5.54071095 Z M29.1102452,5.54071095 L29.9174629,6.34792867 L29.1102452,7.15514639 L28.3030275,6.34792867 L29.1102452,5.54071095 Z M34.8181364,-1.05648823e-12 L35.8271586,1.00902215 L34.8181364,2.01804429 L33.8091143,1.00902215 L34.8181364,-1.05648823e-12 Z M89,34.44 L90.89,34.44 L90.89,28.26 L89,28.26 L89,34.44 Z M89,25.98 L90.89,25.98 L90.89,19.77 L89,19.77 L89,25.98 Z M96.95,29.46 L97.73,18.66 L102.11,18.66 L101.78,23.13 L102.8,23.13 L102.8,17.19 L108.68,17.19 L108.68,23.13 L112.25,23.13 L112.25,25.44 L108.68,25.44 L108.68,33.36 L112.07,33.36 L112.07,35.64 L108.68,35.64 L108.68,43.26 L112.25,43.26 L112.25,45.54 L97.19,45.54 L97.19,43.26 L102.8,43.26 L102.8,35.64 L97.73,35.64 L97.73,33.36 L102.8,33.36 L102.8,25.44 L101.6,25.44 L101.3,29.46 L96.95,29.46 Z M90.89,36.72 L89,36.72 L89,45.72 L83.96,45.72 L83.96,17.61 L96.05,17.61 L96.05,42.9 C96.05,43.28 95.98,43.64 95.84,43.98 C95.7,44.32 95.505,44.62 95.255,44.88 C95.005,45.14 94.715,45.345 94.385,45.495 C94.055,45.645 93.7,45.72 93.32,45.72 L89.72,45.72 L89.72,43.59 L90.05,43.59 C90.27,43.59 90.465,43.505 90.635,43.335 C90.805,43.165 90.89,42.97 90.89,42.75 L90.89,36.72 Z M116.55,17.97 L142.02,17.97 L142.02,20.25 L132.84,20.25 L132.84,28.68 L143.46,28.68 L143.46,30.96 L133.89,30.96 L142.23,43.26 L143.46,43.26 L143.46,45.54 L135.63,45.54 L129.27,36.15 L123,45.54 L115.11,45.54 L115.11,43.26 L116.4,43.26 L124.77,30.96 L115.11,30.96 L115.11,28.68 L125.73,28.68 L125.73,20.25 L116.55,20.25 L116.55,17.97 Z M152.8,23.04 L151.9,34.8 L152.41,35.7 L153.07,34.62 L154.03,23.04 L152.8,23.04 Z M168.82,19.65 L165.37,19.65 L165.37,25.65 L168.04,25.65 C168.26,25.65 168.445,25.56 168.595,25.38 C168.745,25.2 168.82,25 168.82,24.78 L168.82,19.65 Z M159.91,17.34 L174.28,17.34 L174.28,25.05 C174.28,25.45 174.21,25.825 174.07,26.175 C173.93,26.525 173.745,26.825 173.515,27.075 C173.285,27.325 173.015,27.525 172.705,27.675 C172.395,27.825 172.06,27.9 171.7,27.9 L159.91,27.9 L159.91,17.34 Z M159.85,29.4 L174.04,29.4 L174.04,31.71 L169.81,31.71 L169.81,35.55 L174.79,35.55 L174.79,37.83 L171.07,37.83 L174.79,45.72 L169.06,45.72 L167.08,41.52 L165.1,45.72 L159.4,45.72 L163.09,37.83 L159.4,37.83 L159.4,35.55 L164.38,35.55 L164.38,31.71 L159.85,31.71 L159.85,29.4 Z M146.44,20.73 L147.94,20.73 L148.21,17.16 L153.25,17.16 L152.98,20.73 L158.74,20.73 L157.66,35.61 L154.99,39.96 L158.47,45.72 L153.16,45.72 L152.32,44.28 L151.45,45.72 L146.41,45.72 L149.8,40.05 L146.86,35.04 L147.76,23.04 L146.44,23.04 L146.44,20.73 Z M199.34,45.45 L197.84,34.05 L204.53,34.05 L206.03,45.45 L199.34,45.45 Z M185.96,34.05 L184.46,45.45 L177.77,45.45 L179.27,34.05 L185.96,34.05 Z M185.45,20.43 L185.45,29.73 L188.63,29.73 L188.63,21.87 L195.71,21.87 L195.71,29.73 L205.88,29.73 L205.88,32.01 L195.71,32.01 L195.71,42.75 C195.71,43.15 195.635,43.52 195.485,43.86 C195.335,44.2 195.135,44.5 194.885,44.76 C194.635,45.02 194.335,45.225 193.985,45.375 C193.635,45.525 193.27,45.6 192.89,45.6 L185.42,45.6 L185.42,43.32 L187.76,43.32 C187.98,43.32 188.18,43.24 188.36,43.08 C188.54,42.92 188.63,42.71 188.63,42.45 L188.63,32.01 L178.34,32.01 L178.34,18.15 L204.38,18.15 L204.38,20.43 L185.45,20.43 Z M217.2,17.25 L217.2,23.07 L219.15,23.07 L219.15,25.29 L217.2,25.29 L217.2,42.06 L219.15,41.79 L219.15,44.07 L209.1,45.48 L209.1,43.2 L211.05,42.93 L211.05,25.29 L209.1,25.29 L209.1,23.07 L211.05,23.07 L211.05,17.25 L217.2,17.25 Z M229.38,27.15 L237.3,27.15 L237.3,42.87 C237.3,43.27 237.225,43.64 237.075,43.98 C236.925,44.32 236.72,44.62 236.46,44.88 C236.2,45.14 235.895,45.345 235.545,45.495 C235.195,45.645 234.83,45.72 234.45,45.72 L230.19,45.72 L230.19,43.44 L230.91,43.44 C231.15,43.44 231.355,43.36 231.525,43.2 C231.695,43.04 231.78,42.84 231.78,42.6 L231.78,29.43 L231.48,29.43 L229.23,45.72 L224.97,45.72 L227.22,29.43 L226.47,29.43 L224.22,45.72 L219.96,45.72 L222.21,29.43 L220.32,29.43 L227.7,19.77 L220.38,19.77 L220.38,17.49 L236.61,17.49 L229.38,27.15 Z M90.2709238,55.4581031 L86.051713,55.4581031 C85.8322332,55.4581031 85.6459641,55.5346323 85.4929058,55.6876906 C85.3398475,55.8407489 85.2633184,56.0270179 85.2633184,56.2464978 L85.2633184,58.3344439 L90.2709238,58.3344439 L90.2709238,61.1414753 C90.2709238,61.3609552 90.2290493,61.5659955 90.1453004,61.7565964 C90.0615516,61.9471973 89.9489238,62.1146951 89.807417,62.2590897 C89.6659103,62.4034843 89.4984126,62.5175561 89.3049238,62.6013049 C89.111435,62.6850538 88.9078386,62.7269283 88.6941345,62.7269283 L83.288,62.7269283 L83.288,62.0944798 L87.4985471,62.0944798 C87.7180269,62.0944798 87.9057399,62.0179507 88.0616861,61.8648924 C88.2176323,61.7118341 88.2956054,61.525565 88.2956054,61.3060852 L88.2956054,58.9755561 L83.288,58.9755561 L83.288,56.4024439 C83.288,56.1887399 83.3298744,55.9851435 83.4136233,55.7916547 C83.4973722,55.5981659 83.61,55.4292242 83.7515067,55.2848296 C83.8930135,55.140435 84.0605112,55.0263632 84.254,54.9426143 C84.4474888,54.8588655 84.6539731,54.816991 84.8734529,54.816991 L90.2709238,54.816991 L90.2709238,55.4581031 Z M98.1462063,54.816991 L98.1462063,62.7096009 L96.1708879,62.7096009 L96.1708879,58.9755561 L92.9566637,58.9755561 L92.9566637,62.7096009 L90.9813453,62.7096009 L90.9813453,54.816991 L92.9566637,54.816991 L92.9566637,58.3431076 L96.1708879,58.3431076 L96.1708879,54.816991 L98.1462063,54.816991 Z M105.328395,55.4494395 L100.987892,55.4494395 L100.987892,58.3431076 L105.172448,58.3431076 L105.172448,58.9755561 L100.987892,58.9755561 L100.987892,62.1118072 L105.328395,62.1118072 L105.328395,62.7355919 L100.987892,62.7355919 L100.987892,62.7442556 L99.012574,62.7442556 L99.012574,54.816991 L105.328395,54.816991 L105.328395,55.4494395 Z M108.248054,54.8603094 L110.673883,59.9805426 L110.673883,54.8603094 L112.605883,54.8603094 L112.605883,62.7355919 L110.301345,62.7355919 L107.806206,57.5633767 L107.806206,62.7355919 L105.874206,62.7355919 L105.874206,54.8516457 L107.806206,54.8516457 L107.806206,54.8603094 L108.248054,54.8603094 Z M120.897022,61.124148 C120.897022,61.3436278 120.856592,61.5501121 120.775731,61.7436009 C120.69487,61.9370897 120.582242,62.1045874 120.437848,62.2460942 C120.293453,62.3876009 120.125955,62.5002287 119.935354,62.5839776 C119.744753,62.6677265 119.539713,62.7096009 119.320233,62.7096009 L113.437596,62.7096009 L113.437596,54.816991 L120.897022,54.816991 L120.897022,55.4494395 L115.412915,55.4494395 L115.412915,62.0771525 L118.150637,62.0771525 C118.370117,62.0771525 118.554942,62.0006233 118.705112,61.847565 C118.855283,61.6945067 118.930368,61.5082377 118.930368,61.2887578 L118.930368,58.9755561 L116.426565,58.9755561 L116.426565,58.3431076 L120.897022,58.3431076 L120.897022,61.124148 Z M129.707982,55.4581031 L127.472753,55.4581031 L127.472753,62.7269283 L125.488771,62.7269283 L125.488771,55.4581031 L123.262206,55.4581031 L123.262206,54.816991 L129.707982,54.816991 L129.707982,55.4581031 Z M133.866547,55.4581031 L132.991516,55.4581031 L132.991516,62.0771525 L133.866547,62.0771525 L133.866547,62.7096009 L130.123839,62.7096009 L130.123839,62.0771525 L131.016197,62.0771525 L131.016197,55.4581031 L130.123839,55.4581031 L130.123839,54.816991 L133.866547,54.816991 L133.866547,55.4581031 Z M137.384,59.512704 L139.272682,59.512704 L138.319677,56.5497265 L137.384,59.512704 Z M139.506601,54.8256547 L142.26165,62.7096009 L140.294996,62.7096009 L139.471946,60.1451525 L137.176072,60.1451525 L136.37035,62.7096009 L134.386368,62.7096009 L137.150081,54.8256547 L139.506601,54.8256547 Z M145.27661,54.8603094 L147.702439,59.9805426 L147.702439,54.8603094 L149.634439,54.8603094 L149.634439,62.7355919 L147.329901,62.7355919 L144.834762,57.5633767 L144.834762,62.7355919 L142.902762,62.7355919 L142.902762,54.8516457 L144.834762,54.8516457 L144.834762,54.8603094 L145.27661,54.8603094 Z M159.450386,61.1068206 C159.450386,61.3263004 159.408511,61.5327848 159.324762,61.7262735 C159.241013,61.9197623 159.128386,62.0872601 158.986879,62.2287668 C158.845372,62.3702735 158.677874,62.4829013 158.484386,62.5666502 C158.290897,62.6503991 158.0873,62.6922735 157.873596,62.6922735 L152.450135,62.6922735 L152.450135,56.3764529 C152.450135,56.1627489 152.492009,55.9591525 152.575758,55.7656637 C152.659507,55.5721749 152.772135,55.4032332 152.913641,55.2588386 C153.055148,55.1144439 153.221202,55.0003722 153.411803,54.9166233 C153.602404,54.8328744 153.807444,54.791 154.026924,54.791 L159.450386,54.791 L159.450386,61.1068206 Z M156.695336,62.0598251 C156.914816,62.0598251 157.101085,61.983296 157.254143,61.8302377 C157.407202,61.6771794 157.483731,61.4909103 157.483731,61.2714305 L157.483731,55.4321121 L155.213848,55.4321121 C155.104108,55.4321121 155.001587,55.4523274 154.906287,55.4927578 C154.810987,55.5331883 154.727238,55.5895022 154.65504,55.6616996 C154.582843,55.7338969 154.526529,55.8176457 154.486099,55.9129462 C154.445668,56.0082466 154.425453,56.1107668 154.425453,56.2205067 L154.425453,62.0598251 L156.695336,62.0598251 Z M162.681937,54.8603094 L165.107767,59.9805426 L165.107767,54.8603094 L167.039767,54.8603094 L167.039767,62.7355919 L164.735229,62.7355919 L162.24009,57.5633767 L162.24009,62.7355919 L160.30809,62.7355919 L160.30809,54.8516457 L162.24009,54.8516457 L162.24009,54.8603094 L162.681937,54.8603094 Z M171.83078,54.8429821 L171.83078,62.0771525 L174.819749,62.0771525 L174.819749,62.7096009 L169.855462,62.7096009 L169.855462,54.8429821 L171.83078,54.8429821 Z M178.87435,55.4581031 L177.999318,55.4581031 L177.999318,62.0771525 L178.87435,62.0771525 L178.87435,62.7096009 L175.131641,62.7096009 L175.131641,62.0771525 L176.024,62.0771525 L176.024,55.4581031 L175.131641,55.4581031 L175.131641,54.816991 L178.87435,54.816991 L178.87435,55.4581031 Z M181.993274,54.8603094 L184.419103,59.9805426 L184.419103,54.8603094 L186.351103,54.8603094 L186.351103,62.7355919 L184.046565,62.7355919 L181.551426,57.5633767 L181.551426,62.7355919 L179.619426,62.7355919 L179.619426,54.8516457 L181.551426,54.8516457 L181.551426,54.8603094 L181.993274,54.8603094 Z M193.533291,55.4494395 L189.192789,55.4494395 L189.192789,58.3431076 L193.377345,58.3431076 L193.377345,58.9755561 L189.192789,58.9755561 L189.192789,62.1118072 L193.533291,62.1118072 L193.533291,62.7355919 L189.192789,62.7355919 L189.192789,62.7442556 L187.217471,62.7442556 L187.217471,54.816991 L193.533291,54.816991 L193.533291,55.4494395 Z M198.003749,62.0771525 L202.560843,62.0771525 L202.560843,62.7096009 L196.02843,62.7096009 L196.02843,54.8516457 L202.560843,54.8516457 L202.560843,55.4840942 L198.003749,55.4840942 L198.003749,62.0771525 Z M205.85304,59.512704 L207.741722,59.512704 L206.788717,56.5497265 L205.85304,59.512704 Z M207.975641,54.8256547 L210.730691,62.7096009 L208.764036,62.7096009 L207.940987,60.1451525 L205.645112,60.1451525 L204.83939,62.7096009 L202.855408,62.7096009 L205.619121,54.8256547 L207.975641,54.8256547 Z M218.19878,55.4581031 L213.97957,55.4581031 C213.76009,55.4581031 213.573821,55.5346323 213.420762,55.6876906 C213.267704,55.8407489 213.191175,56.0270179 213.191175,56.2464978 L213.191175,58.3344439 L218.19878,58.3344439 L218.19878,61.1414753 C218.19878,61.3609552 218.156906,61.5659955 218.073157,61.7565964 C217.989408,61.9471973 217.87678,62.1146951 217.735274,62.2590897 C217.593767,62.4034843 217.426269,62.5175561 217.23278,62.6013049 C217.039291,62.6850538 216.835695,62.7269283 216.621991,62.7269283 L211.215857,62.7269283 L211.215857,62.0944798 L215.426404,62.0944798 C215.645883,62.0944798 215.833596,62.0179507 215.989543,61.8648924 C216.145489,61.7118341 216.223462,61.525565 216.223462,61.3060852 L216.223462,58.9755561 L211.215857,58.9755561 L211.215857,56.4024439 C211.215857,56.1887399 211.257731,55.9851435 211.34148,55.7916547 C211.425229,55.5981659 211.537857,55.4292242 211.679363,55.2848296 C211.82087,55.140435 211.988368,55.0263632 212.181857,54.9426143 C212.375345,54.8588655 212.58183,54.816991 212.801309,54.816991 L218.19878,54.816991 L218.19878,55.4581031 Z M222.504628,55.4581031 L221.629596,55.4581031 L221.629596,62.0771525 L222.504628,62.0771525 L222.504628,62.7096009 L218.761919,62.7096009 L218.761919,62.0771525 L219.654278,62.0771525 L219.654278,55.4581031 L218.761919,55.4581031 L218.761919,54.816991 L222.504628,54.816991 L222.504628,55.4581031 Z M225.623552,54.8603094 L228.049381,59.9805426 L228.049381,54.8603094 L229.981381,54.8603094 L229.981381,62.7355919 L227.676843,62.7355919 L225.181704,57.5633767 L225.181704,62.7355919 L223.249704,62.7355919 L223.249704,54.8516457 L225.181704,54.8516457 L225.181704,54.8603094 L225.623552,54.8603094 Z M237.848,61.1068206 C237.848,61.3263004 237.806126,61.5327848 237.722377,61.7262735 C237.638628,61.9197623 237.526,62.0872601 237.384493,62.2287668 C237.242987,62.3702735 237.075489,62.4829013 236.882,62.5666502 C236.688511,62.6503991 236.484915,62.6922735 236.271211,62.6922735 L230.847749,62.6922735 L230.847749,56.3764529 C230.847749,56.1627489 230.889623,55.9591525 230.973372,55.7656637 C231.057121,55.5721749 231.169749,55.4032332 231.311256,55.2588386 C231.452762,55.1144439 231.618816,55.0003722 231.809417,54.9166233 C232.000018,54.8328744 232.205058,54.791 232.424538,54.791 L237.848,54.791 L237.848,61.1068206 Z M235.092951,62.0598251 C235.31243,62.0598251 235.4987,61.983296 235.651758,61.8302377 C235.804816,61.6771794 235.881345,61.4909103 235.881345,61.2714305 L235.881345,55.4321121 L233.611462,55.4321121 C233.501722,55.4321121 233.399202,55.4523274 233.303901,55.4927578 C233.208601,55.5331883 233.124852,55.5895022 233.052655,55.6616996 C232.980457,55.7338969 232.924143,55.8176457 232.883713,55.9129462 C232.843283,56.0082466 232.823067,56.1107668 232.823067,56.2205067 L232.823067,62.0598251 L235.092951,62.0598251 Z" id="LOGO"></path>
            </g>
        </g>
    </g>
</svg>